<mxfile host="app.diagrams.net" modified="2024-05-14T00:28:19.805Z" agent="Mozilla/5.0 (Windows NT 10.0; Win64; x64) AppleWebKit/537.36 (KHTML, like Gecko) Chrome/124.0.0.0 Safari/537.36 Edg/124.0.0.0" etag="q1uBI2gmTZGeAJGsN_P7" version="24.4.0" type="device">
  <diagram name="Page-1" id="2YBvvXClWsGukQMizWep">
    <mxGraphModel dx="1386" dy="785" grid="1" gridSize="10" guides="1" tooltips="1" connect="1" arrows="1" fold="1" page="1" pageScale="1" pageWidth="850" pageHeight="1100" math="0" shadow="0">
      <root>
        <mxCell id="0" />
        <mxCell id="1" parent="0" />
        <mxCell id="851PS9GG4SSMfWaz0fMR-21" value="API" style="shape=umlLifeline;perimeter=lifelinePerimeter;whiteSpace=wrap;html=1;container=0;dropTarget=0;collapsible=0;recursiveResize=0;outlineConnect=0;portConstraint=eastwest;newEdgeStyle={&quot;edgeStyle&quot;:&quot;elbowEdgeStyle&quot;,&quot;elbow&quot;:&quot;vertical&quot;,&quot;curved&quot;:0,&quot;rounded&quot;:0};verticalAlign=middle;labelBackgroundColor=none;fillColor=#F2CC8F;strokeColor=#E07A5F;fontColor=#393C56;" vertex="1" parent="1">
          <mxGeometry x="680" y="40" width="100" height="800" as="geometry" />
        </mxCell>
        <mxCell id="851PS9GG4SSMfWaz0fMR-22" value="" style="html=1;points=[];perimeter=orthogonalPerimeter;outlineConnect=0;targetShapes=umlLifeline;portConstraint=eastwest;newEdgeStyle={&quot;edgeStyle&quot;:&quot;elbowEdgeStyle&quot;,&quot;elbow&quot;:&quot;vertical&quot;,&quot;curved&quot;:0,&quot;rounded&quot;:0};labelBackgroundColor=none;fillColor=#F2CC8F;strokeColor=#E07A5F;fontColor=#393C56;" vertex="1" parent="851PS9GG4SSMfWaz0fMR-21">
          <mxGeometry x="45" y="530" width="10" height="130" as="geometry" />
        </mxCell>
        <mxCell id="aM9ryv3xv72pqoxQDRHE-1" value="Usuário" style="shape=umlLifeline;perimeter=lifelinePerimeter;whiteSpace=wrap;html=1;container=0;dropTarget=0;collapsible=0;recursiveResize=0;outlineConnect=0;portConstraint=eastwest;newEdgeStyle={&quot;edgeStyle&quot;:&quot;elbowEdgeStyle&quot;,&quot;elbow&quot;:&quot;vertical&quot;,&quot;curved&quot;:0,&quot;rounded&quot;:0};labelBackgroundColor=none;fillColor=#F2CC8F;strokeColor=#E07A5F;fontColor=#393C56;" parent="1" vertex="1">
          <mxGeometry x="40" y="40" width="100" height="800" as="geometry" />
        </mxCell>
        <mxCell id="aM9ryv3xv72pqoxQDRHE-2" value="" style="html=1;points=[];perimeter=orthogonalPerimeter;outlineConnect=0;targetShapes=umlLifeline;portConstraint=eastwest;newEdgeStyle={&quot;edgeStyle&quot;:&quot;elbowEdgeStyle&quot;,&quot;elbow&quot;:&quot;vertical&quot;,&quot;curved&quot;:0,&quot;rounded&quot;:0};labelBackgroundColor=none;fillColor=#F2CC8F;strokeColor=#E07A5F;fontColor=#393C56;" parent="aM9ryv3xv72pqoxQDRHE-1" vertex="1">
          <mxGeometry x="45" y="70" width="10" height="680" as="geometry" />
        </mxCell>
        <mxCell id="aM9ryv3xv72pqoxQDRHE-4" value="" style="html=1;points=[];perimeter=orthogonalPerimeter;outlineConnect=0;targetShapes=umlLifeline;portConstraint=eastwest;newEdgeStyle={&quot;edgeStyle&quot;:&quot;elbowEdgeStyle&quot;,&quot;elbow&quot;:&quot;vertical&quot;,&quot;curved&quot;:0,&quot;rounded&quot;:0};labelBackgroundColor=none;fillColor=#F2CC8F;strokeColor=#E07A5F;fontColor=#393C56;" parent="aM9ryv3xv72pqoxQDRHE-1" vertex="1">
          <mxGeometry x="50" y="120" width="10" height="80" as="geometry" />
        </mxCell>
        <mxCell id="aM9ryv3xv72pqoxQDRHE-5" value="site" style="shape=umlLifeline;perimeter=lifelinePerimeter;whiteSpace=wrap;html=1;container=0;dropTarget=0;collapsible=0;recursiveResize=0;outlineConnect=0;portConstraint=eastwest;newEdgeStyle={&quot;edgeStyle&quot;:&quot;elbowEdgeStyle&quot;,&quot;elbow&quot;:&quot;vertical&quot;,&quot;curved&quot;:0,&quot;rounded&quot;:0};labelBackgroundColor=none;fillColor=#F2CC8F;strokeColor=#E07A5F;fontColor=#393C56;" parent="1" vertex="1">
          <mxGeometry x="410" y="40" width="100" height="800" as="geometry" />
        </mxCell>
        <mxCell id="aM9ryv3xv72pqoxQDRHE-6" value="" style="html=1;points=[];perimeter=orthogonalPerimeter;outlineConnect=0;targetShapes=umlLifeline;portConstraint=eastwest;newEdgeStyle={&quot;edgeStyle&quot;:&quot;elbowEdgeStyle&quot;,&quot;elbow&quot;:&quot;vertical&quot;,&quot;curved&quot;:0,&quot;rounded&quot;:0};labelBackgroundColor=none;fillColor=#F2CC8F;strokeColor=#E07A5F;fontColor=#393C56;" parent="aM9ryv3xv72pqoxQDRHE-5" vertex="1">
          <mxGeometry x="45" y="80" width="10" height="670" as="geometry" />
        </mxCell>
        <mxCell id="aM9ryv3xv72pqoxQDRHE-7" value="1- Registra&amp;nbsp;" style="html=1;verticalAlign=bottom;endArrow=block;edgeStyle=elbowEdgeStyle;elbow=vertical;curved=0;rounded=0;labelBackgroundColor=none;strokeColor=#E07A5F;fontColor=default;" parent="1" source="aM9ryv3xv72pqoxQDRHE-2" target="aM9ryv3xv72pqoxQDRHE-6" edge="1">
          <mxGeometry relative="1" as="geometry">
            <mxPoint x="195" y="130" as="sourcePoint" />
            <Array as="points">
              <mxPoint x="180" y="120" />
            </Array>
            <mxPoint as="offset" />
          </mxGeometry>
        </mxCell>
        <mxCell id="aM9ryv3xv72pqoxQDRHE-10" value="5- Entradas de dados de exercícios" style="html=1;verticalAlign=bottom;endArrow=open;endSize=8;edgeStyle=elbowEdgeStyle;elbow=vertical;curved=0;rounded=0;labelBackgroundColor=none;strokeColor=#E07A5F;fontColor=default;" parent="1" source="aM9ryv3xv72pqoxQDRHE-4" target="aM9ryv3xv72pqoxQDRHE-6" edge="1">
          <mxGeometry relative="1" as="geometry">
            <mxPoint x="175" y="235" as="targetPoint" />
            <Array as="points">
              <mxPoint x="180" y="230" />
            </Array>
          </mxGeometry>
        </mxCell>
        <mxCell id="851PS9GG4SSMfWaz0fMR-2" value="bando de dados" style="shape=umlLifeline;perimeter=lifelinePerimeter;whiteSpace=wrap;html=1;container=0;dropTarget=0;collapsible=0;recursiveResize=0;outlineConnect=0;portConstraint=eastwest;newEdgeStyle={&quot;edgeStyle&quot;:&quot;elbowEdgeStyle&quot;,&quot;elbow&quot;:&quot;vertical&quot;,&quot;curved&quot;:0,&quot;rounded&quot;:0};labelBackgroundColor=none;fillColor=#F2CC8F;strokeColor=#E07A5F;fontColor=#393C56;" vertex="1" parent="1">
          <mxGeometry x="880" y="50" width="100" height="760" as="geometry" />
        </mxCell>
        <mxCell id="851PS9GG4SSMfWaz0fMR-3" value="" style="html=1;points=[];perimeter=orthogonalPerimeter;outlineConnect=0;targetShapes=umlLifeline;portConstraint=eastwest;newEdgeStyle={&quot;edgeStyle&quot;:&quot;elbowEdgeStyle&quot;,&quot;elbow&quot;:&quot;vertical&quot;,&quot;curved&quot;:0,&quot;rounded&quot;:0};labelBackgroundColor=none;fillColor=#F2CC8F;strokeColor=#E07A5F;fontColor=#393C56;" vertex="1" parent="851PS9GG4SSMfWaz0fMR-2">
          <mxGeometry x="45" y="80" width="10" height="650" as="geometry" />
        </mxCell>
        <mxCell id="851PS9GG4SSMfWaz0fMR-5" value="2- Registra dados do Usuário" style="edgeStyle=elbowEdgeStyle;rounded=0;orthogonalLoop=1;jettySize=auto;html=1;elbow=vertical;curved=0;verticalAlign=bottom;align=center;labelBackgroundColor=none;strokeColor=#E07A5F;fontColor=default;" edge="1" parent="1" target="851PS9GG4SSMfWaz0fMR-2">
          <mxGeometry x="0.0313" relative="1" as="geometry">
            <mxPoint x="465" y="140" as="sourcePoint" />
            <mxPoint x="785" y="140" as="targetPoint" />
            <mxPoint as="offset" />
          </mxGeometry>
        </mxCell>
        <mxCell id="851PS9GG4SSMfWaz0fMR-6" value="3- Dados salvos" style="html=1;verticalAlign=bottom;endArrow=open;dashed=1;endSize=8;edgeStyle=elbowEdgeStyle;elbow=vertical;curved=0;rounded=0;labelBackgroundColor=none;strokeColor=#E07A5F;fontColor=default;" edge="1" parent="1" source="851PS9GG4SSMfWaz0fMR-2">
          <mxGeometry relative="1" as="geometry">
            <mxPoint x="465" y="180" as="targetPoint" />
            <Array as="points" />
            <mxPoint x="789.5" y="180" as="sourcePoint" />
          </mxGeometry>
        </mxCell>
        <mxCell id="851PS9GG4SSMfWaz0fMR-7" value="4- cadastro realizado com sucesso" style="edgeStyle=elbowEdgeStyle;rounded=0;orthogonalLoop=1;jettySize=auto;html=1;elbow=vertical;curved=0;dashed=1;verticalAlign=bottom;labelBackgroundColor=none;strokeColor=#E07A5F;fontColor=default;" edge="1" parent="1" source="aM9ryv3xv72pqoxQDRHE-5">
          <mxGeometry relative="1" as="geometry">
            <mxPoint x="265" y="190" as="sourcePoint" />
            <mxPoint x="89.5" y="190" as="targetPoint" />
          </mxGeometry>
        </mxCell>
        <mxCell id="851PS9GG4SSMfWaz0fMR-8" value="6 - Informa os dados do exercicios para o banco" style="edgeStyle=elbowEdgeStyle;rounded=0;orthogonalLoop=1;jettySize=auto;html=1;elbow=vertical;curved=0;verticalAlign=bottom;labelBackgroundColor=none;strokeColor=#E07A5F;fontColor=default;" edge="1" parent="1" target="851PS9GG4SSMfWaz0fMR-2">
          <mxGeometry relative="1" as="geometry">
            <mxPoint x="460" y="250" as="sourcePoint" />
            <mxPoint x="579.5" y="250" as="targetPoint" />
          </mxGeometry>
        </mxCell>
        <mxCell id="851PS9GG4SSMfWaz0fMR-9" value="7- Exercícios salvos&lt;div&gt;&lt;br&gt;&lt;/div&gt;" style="edgeStyle=elbowEdgeStyle;rounded=0;orthogonalLoop=1;jettySize=auto;html=1;elbow=vertical;curved=0;dashed=1;verticalAlign=top;labelBackgroundColor=none;strokeColor=#E07A5F;fontColor=default;" edge="1" parent="1" source="851PS9GG4SSMfWaz0fMR-2">
          <mxGeometry relative="1" as="geometry">
            <mxPoint x="645" y="290" as="sourcePoint" />
            <mxPoint x="460" y="290" as="targetPoint" />
          </mxGeometry>
        </mxCell>
        <mxCell id="851PS9GG4SSMfWaz0fMR-10" value="8- Fornece a criação de treino com exercicios cadastrados" style="edgeStyle=elbowEdgeStyle;rounded=0;orthogonalLoop=1;jettySize=auto;html=1;elbow=vertical;curved=0;dashed=1;verticalAlign=bottom;labelBackgroundColor=none;strokeColor=#E07A5F;fontColor=default;" edge="1" parent="1" source="aM9ryv3xv72pqoxQDRHE-5">
          <mxGeometry relative="1" as="geometry">
            <mxPoint x="375" y="310" as="sourcePoint" />
            <mxPoint x="89.5" y="310" as="targetPoint" />
          </mxGeometry>
        </mxCell>
        <mxCell id="851PS9GG4SSMfWaz0fMR-11" value="9- Criar treinos" style="edgeStyle=elbowEdgeStyle;rounded=0;orthogonalLoop=1;jettySize=auto;html=1;elbow=horizontal;curved=0;verticalAlign=bottom;labelBackgroundColor=none;strokeColor=#E07A5F;fontColor=default;" edge="1" parent="1">
          <mxGeometry relative="1" as="geometry">
            <mxPoint x="95" y="340" as="sourcePoint" />
            <mxPoint x="459.5" y="340" as="targetPoint" />
          </mxGeometry>
        </mxCell>
        <mxCell id="851PS9GG4SSMfWaz0fMR-13" value="10 - Envia treino para o banco&lt;div&gt;&lt;br&gt;&lt;/div&gt;" style="edgeStyle=elbowEdgeStyle;rounded=0;orthogonalLoop=1;jettySize=auto;html=1;elbow=vertical;curved=0;verticalAlign=top;labelBackgroundColor=none;strokeColor=#E07A5F;fontColor=default;" edge="1" parent="1" target="851PS9GG4SSMfWaz0fMR-2">
          <mxGeometry relative="1" as="geometry">
            <mxPoint x="465" y="350" as="sourcePoint" />
            <mxPoint x="785" y="350" as="targetPoint" />
          </mxGeometry>
        </mxCell>
        <mxCell id="851PS9GG4SSMfWaz0fMR-14" value="11- Treino registrado&lt;div&gt;&lt;br&gt;&lt;/div&gt;" style="edgeStyle=elbowEdgeStyle;rounded=0;orthogonalLoop=1;jettySize=auto;html=1;elbow=vertical;curved=0;dashed=1;verticalAlign=top;labelBackgroundColor=none;strokeColor=#E07A5F;fontColor=default;" edge="1" parent="1" source="851PS9GG4SSMfWaz0fMR-2">
          <mxGeometry relative="1" as="geometry">
            <mxPoint x="785" y="400" as="sourcePoint" />
            <mxPoint x="459.5" y="400" as="targetPoint" />
          </mxGeometry>
        </mxCell>
        <mxCell id="851PS9GG4SSMfWaz0fMR-15" value="12- Retorna todos os treino ao usuário&lt;div&gt;&lt;br&gt;&lt;/div&gt;" style="edgeStyle=elbowEdgeStyle;rounded=0;orthogonalLoop=1;jettySize=auto;html=1;elbow=vertical;curved=0;verticalAlign=top;labelBackgroundColor=none;strokeColor=#E07A5F;fontColor=default;" edge="1" parent="1">
          <mxGeometry relative="1" as="geometry">
            <mxPoint x="455" y="410" as="sourcePoint" />
            <mxPoint x="89.5" y="410" as="targetPoint" />
          </mxGeometry>
        </mxCell>
        <mxCell id="851PS9GG4SSMfWaz0fMR-16" value="13- cria cronometro para o treino" style="edgeStyle=elbowEdgeStyle;rounded=0;orthogonalLoop=1;jettySize=auto;html=1;elbow=vertical;curved=0;verticalAlign=bottom;labelBackgroundColor=none;strokeColor=#E07A5F;fontColor=default;" edge="1" parent="1">
          <mxGeometry relative="1" as="geometry">
            <mxPoint x="95" y="470" as="sourcePoint" />
            <mxPoint x="459.5" y="470" as="targetPoint" />
          </mxGeometry>
        </mxCell>
        <mxCell id="851PS9GG4SSMfWaz0fMR-17" value="14- Cronometro salvos com sucesso" style="edgeStyle=elbowEdgeStyle;rounded=0;orthogonalLoop=1;jettySize=auto;html=1;elbow=vertical;curved=0;dashed=1;verticalAlign=top;labelBackgroundColor=none;strokeColor=#E07A5F;fontColor=default;" edge="1" parent="1">
          <mxGeometry relative="1" as="geometry">
            <mxPoint x="455" y="510" as="sourcePoint" />
            <mxPoint x="89.5" y="510" as="targetPoint" />
          </mxGeometry>
        </mxCell>
        <mxCell id="851PS9GG4SSMfWaz0fMR-18" value="15- Escala treino e cronometro" style="edgeStyle=elbowEdgeStyle;rounded=0;orthogonalLoop=1;jettySize=auto;html=1;elbow=vertical;curved=0;verticalAlign=bottom;labelBackgroundColor=none;strokeColor=#E07A5F;fontColor=default;" edge="1" parent="1">
          <mxGeometry relative="1" as="geometry">
            <mxPoint x="90" y="570" as="sourcePoint" />
            <mxPoint x="454.5" y="570" as="targetPoint" />
          </mxGeometry>
        </mxCell>
        <mxCell id="851PS9GG4SSMfWaz0fMR-24" value="16- Solicita informações na API" style="edgeStyle=elbowEdgeStyle;rounded=0;orthogonalLoop=1;jettySize=auto;html=1;elbow=vertical;curved=0;verticalAlign=bottom;labelBackgroundColor=none;strokeColor=#E07A5F;fontColor=default;" edge="1" parent="1" target="851PS9GG4SSMfWaz0fMR-21">
          <mxGeometry relative="1" as="geometry">
            <mxPoint x="465" y="600" as="sourcePoint" />
            <mxPoint x="705" y="600" as="targetPoint" />
          </mxGeometry>
        </mxCell>
        <mxCell id="851PS9GG4SSMfWaz0fMR-25" value="17- Autoriza e envia dados dos alimentos e calorias" style="edgeStyle=elbowEdgeStyle;rounded=0;orthogonalLoop=1;jettySize=auto;html=1;elbow=vertical;curved=0;dashed=1;verticalAlign=top;labelBackgroundColor=none;strokeColor=#E07A5F;fontColor=default;" edge="1" parent="1" source="851PS9GG4SSMfWaz0fMR-22">
          <mxGeometry relative="1" as="geometry">
            <mxPoint x="705.5" y="640" as="sourcePoint" />
            <mxPoint x="460" y="640" as="targetPoint" />
          </mxGeometry>
        </mxCell>
        <mxCell id="851PS9GG4SSMfWaz0fMR-27" value="18- Envia a lista de alimento para o usuário" style="edgeStyle=elbowEdgeStyle;rounded=0;orthogonalLoop=1;jettySize=auto;html=1;elbow=vertical;curved=0;verticalAlign=bottom;labelBackgroundColor=none;strokeColor=#E07A5F;fontColor=default;" edge="1" parent="1" target="aM9ryv3xv72pqoxQDRHE-2">
          <mxGeometry relative="1" as="geometry">
            <mxPoint x="455" y="620" as="sourcePoint" />
            <mxPoint x="100" y="690" as="targetPoint" />
            <Array as="points">
              <mxPoint x="280" y="680" />
            </Array>
          </mxGeometry>
        </mxCell>
        <mxCell id="851PS9GG4SSMfWaz0fMR-28" value="19- Seleciona os alimentos" style="edgeStyle=elbowEdgeStyle;rounded=0;orthogonalLoop=1;jettySize=auto;html=1;elbow=vertical;curved=0;verticalAlign=bottom;labelBackgroundColor=none;strokeColor=#E07A5F;fontColor=default;" edge="1" parent="1">
          <mxGeometry relative="1" as="geometry">
            <mxPoint x="95" y="720" as="sourcePoint" />
            <mxPoint x="459.5" y="720" as="targetPoint" />
          </mxGeometry>
        </mxCell>
        <mxCell id="851PS9GG4SSMfWaz0fMR-30" value="20- Gera refeições" style="edgeStyle=elbowEdgeStyle;rounded=0;orthogonalLoop=1;jettySize=auto;html=1;elbow=vertical;curved=0;verticalAlign=bottom;labelBackgroundColor=none;strokeColor=#E07A5F;fontColor=default;" edge="1" parent="1" target="851PS9GG4SSMfWaz0fMR-2">
          <mxGeometry relative="1" as="geometry">
            <mxPoint x="465" y="740" as="sourcePoint" />
            <mxPoint x="729.5" y="740" as="targetPoint" />
          </mxGeometry>
        </mxCell>
        <mxCell id="851PS9GG4SSMfWaz0fMR-32" value="21- Refeições salvas com sucesso" style="edgeStyle=elbowEdgeStyle;rounded=0;orthogonalLoop=1;jettySize=auto;html=1;elbow=vertical;curved=0;verticalAlign=top;dashed=1;labelBackgroundColor=none;strokeColor=#E07A5F;fontColor=default;" edge="1" parent="1">
          <mxGeometry relative="1" as="geometry">
            <mxPoint x="925" y="780" as="sourcePoint" />
            <mxPoint x="459.5" y="780" as="targetPoint" />
          </mxGeometry>
        </mxCell>
        <mxCell id="851PS9GG4SSMfWaz0fMR-33" value="22- Fornece a listas de refeições salvas" style="edgeStyle=elbowEdgeStyle;rounded=0;orthogonalLoop=1;jettySize=auto;html=1;elbow=vertical;curved=0;verticalAlign=bottom;labelBackgroundColor=none;strokeColor=#E07A5F;fontColor=default;" edge="1" parent="1">
          <mxGeometry relative="1" as="geometry">
            <mxPoint x="455" y="770" as="sourcePoint" />
            <mxPoint x="89.5" y="770" as="targetPoint" />
          </mxGeometry>
        </mxCell>
      </root>
    </mxGraphModel>
  </diagram>
</mxfile>
